<svg width="138" height="105" viewBox="0 0 138 105" fill="none" xmlns="http://www.w3.org/2000/svg">
<g clip-path="url(#clip0_759_9215)">
<path d="M100.767 99.3158H98.0216L96.7148 88.6367H100.767V99.3158Z" fill="#9E616A"/>
<path d="M102.216 104.113H100.247L99.8955 102.238L98.9953 104.113H93.7727C93.5224 104.113 93.2786 104.032 93.0769 103.882C92.8753 103.733 92.7263 103.522 92.6518 103.281C92.5773 103.04 92.5812 102.781 92.6628 102.543C92.7444 102.304 92.8996 102.098 93.1056 101.955L97.2762 99.0504V97.1553L101.663 97.4193L102.216 104.113Z" fill="#2F2E41"/>
<path d="M117.08 95.8215L114.876 97.4736L107.508 89.6904L110.76 87.252L117.08 95.8215Z" fill="#9E616A"/>
<path d="M121.082 98.799L119.502 99.9838L118.11 98.6911L118.497 100.737L114.306 103.879C114.105 104.03 113.862 104.112 113.612 104.113C113.361 104.114 113.117 104.035 112.915 103.886C112.712 103.738 112.562 103.528 112.487 103.287C112.411 103.047 112.413 102.788 112.494 102.549L114.122 97.7091L113 96.1883L116.677 93.7607L121.082 98.799Z" fill="#2F2E41"/>
<path d="M103.964 44.2168C103.964 44.2168 109.174 48.7553 106.77 61.6933L103.835 74.3704L113.406 90.3798L110.354 94.1231L97.9124 76.7948L93.4038 66.131L92.1387 47.1517L103.964 44.2168Z" fill="#2F2E41"/>
<path d="M95.8886 69.1699L95.5752 74.0633L96.5342 94.9155L101.047 94.123L101.909 79.2766L95.8886 69.1699Z" fill="#2F2E41"/>
<path d="M37.9818 101.827L40.4373 101.826L41.6054 92.2764L37.9814 92.2765L37.9818 101.827Z" fill="#FFB6B6"/>
<path d="M37.3555 101.019L38.0466 101.019L40.745 99.9121L42.1913 101.018H42.1914C43.0088 101.018 43.7926 101.346 44.3705 101.929C44.9484 102.511 45.2731 103.302 45.2732 104.126V104.227L37.3556 104.227L37.3555 101.019Z" fill="#2F2E41"/>
<path d="M47.498 100.267L49.8932 100.812L53.119 91.756L49.584 90.9512L47.498 100.267Z" fill="#FFB6B6"/>
<path d="M47.0631 99.3382L47.7373 99.4917L50.6111 99.0117L51.7801 100.412L51.7803 100.412C52.5775 100.594 53.2706 101.087 53.707 101.784C54.1434 102.481 54.2875 103.324 54.1075 104.128L54.0855 104.226L46.3623 102.468L47.0631 99.3382Z" fill="#2F2E41"/>
<path d="M34.8723 43.4424C33.721 46.9435 33.8427 50.7438 35.149 54.8226L35.7074 77.7874C35.7074 77.7874 34.8754 92.8472 37.5601 98.1466H41.4536L43.3813 76.4121L43.6233 61.8237L51.9706 74.1313L46.654 97.7913L51.4459 98.2232L60.0734 72.5467L49.4288 47.636L34.8723 43.4424Z" fill="#2F2E41"/>
<path d="M79.7729 33.4698C82.751 30.7639 87.1806 29.4033 90.8963 30.9206C87.0848 33.0543 84.1447 36.4786 82.5961 40.5877C82.0046 42.1746 81.5106 44.0017 80.0556 44.8512C79.1504 45.3799 78.0241 45.4057 77.009 45.1505C75.994 44.8953 75.0635 44.3837 74.1459 43.8772L73.8848 43.8713C75.0569 40.0058 76.7949 36.1758 79.7729 33.4698Z" fill="#E6E6E6"/>
<path d="M90.8757 31.0023C87.5849 31.4311 84.5118 32.8945 82.0928 35.1847C81.5634 35.6684 81.1129 36.2332 80.7579 36.8584C80.4316 37.4786 80.2759 38.1757 80.3072 38.8771C80.3232 39.5317 80.4149 40.1994 80.2729 40.8465C80.1953 41.1767 80.0494 41.4866 79.8447 41.7559C79.64 42.0252 79.3812 42.2478 79.0852 42.4092C78.3581 42.8307 77.5241 42.9635 76.704 43.0649C75.7935 43.1774 74.846 43.2798 74.0579 43.7947C73.9624 43.8571 73.8719 43.7041 73.9673 43.6418C75.3385 42.7458 77.0737 43.0718 78.5482 42.4739C79.2362 42.1949 79.845 41.7051 80.0604 40.9646C80.2489 40.3171 80.155 39.6285 80.133 38.9659C80.0926 38.2821 80.2189 37.5987 80.5008 36.9754C80.8231 36.3341 81.2512 35.7527 81.767 35.2562C82.9104 34.1197 84.2239 33.1715 85.6594 32.4465C87.2931 31.6098 89.0568 31.0611 90.8741 30.8241C90.9866 30.8095 90.9875 30.9877 90.8757 31.0023Z" fill="white"/>
<path d="M82.8281 34.4015C82.5022 33.9401 82.3494 33.3769 82.3973 32.8124C82.4451 32.248 82.6904 31.7191 83.0893 31.3201C83.1702 31.2397 83.298 31.3628 83.2169 31.4434C82.8448 31.8142 82.6164 32.3069 82.5729 32.8326C82.5294 33.3583 82.6738 33.8823 82.9798 34.3102C83.0462 34.4032 82.8942 34.494 82.8281 34.4015Z" fill="white"/>
<path d="M80.255 38.5462C81.3859 38.7482 82.5508 38.5131 83.5173 37.8876C83.613 37.8255 83.7035 37.9786 83.6079 38.0405C82.6009 38.6895 81.3882 38.9318 80.2118 38.7189C80.0997 38.6986 80.1435 38.526 80.255 38.5462Z" fill="white"/>
<path d="M87.3067 31.846C87.3959 32.051 87.5343 32.2305 87.7093 32.3683C87.8843 32.5061 88.0905 32.5979 88.3094 32.6354C88.4218 32.6543 88.3778 32.827 88.2662 32.8082C88.0246 32.7655 87.7969 32.6639 87.6032 32.5121C87.4095 32.3602 87.2556 32.1629 87.155 31.9373C87.1438 31.9168 87.1407 31.8928 87.1463 31.8701C87.152 31.8475 87.166 31.8278 87.1856 31.8152C87.2057 31.8032 87.2297 31.7997 87.2524 31.8055C87.2751 31.8112 87.2946 31.8258 87.3067 31.846Z" fill="white"/>
<path d="M94.9881 43.9699C94.9176 43.9601 94.8471 43.9503 94.7756 43.9416C93.8277 43.8148 92.871 43.7658 91.9152 43.7951C91.8412 43.7962 91.7663 43.7984 91.6926 43.8016C89.3905 43.8971 87.1259 44.4227 85.0141 45.3517C84.1741 45.7221 83.3633 46.1565 82.5886 46.651C81.5188 47.334 80.4128 48.1603 79.2169 48.4389C79.0925 48.4694 78.9663 48.492 78.8391 48.5068L73.8981 44.1929C73.8917 44.1774 73.8843 44.163 73.8779 44.1475L73.6729 43.9843C73.711 43.956 73.7512 43.9275 73.7894 43.8991C73.8115 43.8826 73.8347 43.8671 73.8568 43.8505C73.8718 43.8398 73.887 43.8292 73.9 43.8186C73.905 43.8151 73.91 43.8115 73.9141 43.8091C73.927 43.7985 73.9402 43.7901 73.9522 43.7807C74.1766 43.6206 74.4024 43.4617 74.6297 43.3042C74.6307 43.3031 74.6307 43.3031 74.6328 43.3029C76.3536 42.0857 78.2115 41.0787 80.1676 40.3029C80.2263 40.2805 80.2859 40.257 80.3468 40.2366C81.2278 39.9064 82.134 39.6492 83.0565 39.4678C83.5619 39.3701 84.0719 39.2983 84.5846 39.2526C85.9094 39.1371 87.2439 39.2324 88.5394 39.5351C91.1217 40.1389 93.4838 41.5687 94.8828 43.7985C94.9186 43.8556 94.9533 43.9117 94.9881 43.9699Z" fill="#E6E6E6"/>
<path d="M94.9219 44.0237C92.0384 42.3683 88.7108 41.6711 85.4119 42.0312C84.7004 42.096 84.0034 42.2735 83.3467 42.5572C82.7158 42.8543 82.1754 43.3164 81.7815 43.8954C81.4035 44.4278 81.0779 45.0165 80.5782 45.447C80.3191 45.6635 80.0176 45.8224 79.6933 45.9132C79.3691 46.004 79.0295 46.0246 78.6968 45.9738C77.8645 45.8688 77.1193 45.4686 76.404 45.0517C75.6099 44.5888 74.7922 44.0953 73.8555 44.028C73.7419 44.0198 73.7611 43.8427 73.8745 43.8509C75.5043 43.968 76.6951 45.2817 78.2294 45.6993C78.9453 45.8943 79.7238 45.8728 80.338 45.4124C80.8751 45.0098 81.2113 44.4029 81.5894 43.8605C81.9654 43.29 82.4743 42.821 83.0715 42.4945C83.7118 42.1781 84.4008 41.9738 85.1091 41.8905C86.7006 41.6772 88.3155 41.7176 89.8946 42.0101C91.6987 42.3339 93.4345 42.9665 95.027 43.8805C95.1255 43.9371 95.0198 44.08 94.9219 44.0237Z" fill="white"/>
<path d="M86.4678 41.8515C86.483 41.2852 86.6974 40.7428 87.0726 40.3212C87.4478 39.8995 87.9595 39.6261 88.5162 39.5497C88.6289 39.5347 88.6574 39.7105 88.5445 39.7256C88.026 39.7958 87.5494 40.0505 87.2008 40.4439C86.8522 40.8372 86.6545 41.3433 86.6435 41.8707C86.6409 41.9853 86.4653 41.9654 86.4678 41.8515Z" fill="white"/>
<path d="M81.9378 43.6001C82.7201 44.4479 83.7906 44.9673 84.9358 45.0547C85.0492 45.0632 85.0301 45.2403 84.9168 45.2318C83.7252 45.1386 82.6123 44.5959 81.8001 43.7118C81.7228 43.6275 81.8609 43.5162 81.9378 43.6001Z" fill="white"/>
<path d="M91.5694 42.531C91.5183 42.7489 91.5216 42.9762 91.579 43.1924C91.6365 43.4087 91.7464 43.6072 91.8987 43.7701C91.9771 43.8534 91.8389 43.9645 91.7611 43.8818C91.5936 43.701 91.4725 43.4817 91.4085 43.2429C91.3445 43.0041 91.3394 42.7531 91.3938 42.5119C91.397 42.4887 91.4089 42.4676 91.427 42.453C91.4451 42.4383 91.468 42.4311 91.4911 42.4329C91.5144 42.4355 91.5356 42.4473 91.5503 42.4657C91.565 42.4841 91.5718 42.5076 91.5694 42.531Z" fill="white"/>
<path d="M8.20178 101.654C7.96983 102.531 7.36038 103.262 6.62455 103.794C6.50458 103.881 6.38141 103.962 6.25664 104.038C6.21825 104.06 6.17986 104.084 6.13987 104.105C6.09668 104.131 6.05349 104.155 6.0103 104.178H2.55031C2.48793 104.05 2.42714 103.921 2.36636 103.794C0.883506 100.652 -0.157848 97.2616 0.0197099 93.8083C0.0901537 92.4688 0.369236 91.1489 0.846715 89.8969C1.79689 87.4017 3.53088 85.242 5.91592 84.1549C5.97511 84.1274 6.03749 84.1 6.09828 84.0742C6.07908 84.1436 6.05989 84.2113 6.04069 84.2807C5.78482 85.2101 5.604 86.1589 5.50002 87.1178C5.49042 87.192 5.48242 87.2662 5.47602 87.342C5.24877 89.6546 5.45056 91.9896 6.07108 94.2277C6.07268 94.2325 6.07427 94.239 6.07588 94.2438C6.21186 94.739 6.36968 95.2266 6.54937 95.7067C6.69014 96.0858 6.8421 96.46 7.00846 96.8277C7.7027 98.3713 8.63367 100.017 8.20178 101.654Z" fill="#E6E6E6"/>
<path d="M6.14172 84.1466C6.10813 84.1918 6.07453 84.2353 6.04094 84.2805C5.33836 85.2193 4.74175 86.2342 4.26216 87.3064C4.23657 87.3596 4.21257 87.4128 4.19178 87.4677C3.53465 88.9648 3.11263 90.5559 2.94087 92.1839C2.93901 92.1951 2.93795 92.2064 2.93767 92.2177C2.89768 92.5984 2.87369 92.9823 2.86409 93.3662C2.82852 94.0857 2.90572 94.8064 3.09284 95.5017C3.26345 96.0695 3.56243 96.5896 3.96623 97.0211C4.00622 97.0646 4.04621 97.1082 4.0894 97.1501C4.12139 97.184 4.15658 97.2179 4.19018 97.2501C4.5133 97.5614 4.86682 97.8501 5.17075 98.184C5.31005 98.3337 5.43585 98.4957 5.54666 98.6679C5.7235 98.9566 5.83773 99.2797 5.88185 99.6161C5.92596 99.9525 5.89895 100.294 5.8026 100.62C5.58505 101.436 5.08757 102.124 4.57889 102.781C4.32455 103.11 4.06221 103.442 3.83506 103.794C3.75189 103.92 3.6751 104.047 3.60473 104.178H3.40317C3.47036 104.047 3.54394 103.92 3.62392 103.794C4.20778 102.866 5.03799 102.07 5.46829 101.049C5.75942 100.36 5.8474 99.5792 5.47949 98.9034C5.37166 98.7069 5.24118 98.5239 5.09078 98.3582C4.79804 98.0243 4.44773 97.7388 4.1294 97.4372C4.04942 97.3614 3.97104 97.284 3.89586 97.2033C3.49726 96.795 3.18968 96.3056 2.99367 95.7678C2.77169 95.0848 2.66674 94.3686 2.68334 93.65C2.68334 93.192 2.70734 92.7307 2.75213 92.2726C2.75693 92.2145 2.76332 92.1548 2.76972 92.0952C3.09685 89.2126 4.18327 86.4709 5.91618 84.1547C5.94817 84.1095 5.98177 84.066 6.01536 84.0224C6.08413 83.9321 6.2105 84.0579 6.14172 84.1466Z" fill="white"/>
<path d="M2.83365 92.2879C2.27959 92.1941 1.77665 91.9047 1.41464 91.4715C1.05264 91.0383 0.855153 90.4894 0.857442 89.9229C0.857748 89.8998 0.866934 89.8778 0.883065 89.8613C0.899197 89.8449 0.921015 89.8355 0.94392 89.835C0.966826 89.8345 0.989032 89.843 1.00586 89.8586C1.02269 89.8743 1.03282 89.896 1.03413 89.919C1.03103 90.4466 1.21504 90.9578 1.55296 91.3605C1.89087 91.7633 2.36042 92.0309 2.87687 92.1152C2.98908 92.1337 2.94522 92.3063 2.83365 92.2879Z" fill="white"/>
<path d="M3.92196 97.0533C4.86328 96.3899 5.52202 95.3931 5.76683 94.2616C5.79099 94.1495 5.96228 94.1932 5.93815 94.3052C5.68122 95.4821 4.9936 96.5181 4.01254 97.2063C3.91899 97.2718 3.82891 97.1185 3.92196 97.0533Z" fill="white"/>
<path d="M4.20899 87.2874C4.41586 87.3688 4.63954 87.397 4.85992 87.3697C5.08031 87.3423 5.29051 87.2602 5.47164 87.1307C5.56432 87.064 5.6543 87.2174 5.56222 87.2837C5.36143 87.4258 5.12918 87.5162 4.88575 87.547C4.64232 87.5778 4.39513 87.5479 4.16576 87.4602C4.14345 87.4537 4.12442 87.4389 4.11252 87.4189C4.10062 87.3988 4.09676 87.3749 4.10171 87.352C4.10755 87.3292 4.1221 87.3096 4.14218 87.2975C4.16227 87.2854 4.18628 87.2818 4.20899 87.2874Z" fill="white"/>
<path d="M18.1416 90.3834C18.0856 90.4269 18.028 90.4705 17.9721 90.5156C17.2126 91.1017 16.5016 91.749 15.8462 92.4512C15.795 92.5044 15.7438 92.5592 15.6942 92.6141L15.6926 92.6157C14.1384 94.3169 12.9095 96.2932 12.0678 98.4448L12.063 98.4594C12.0614 98.4642 12.0598 98.4674 12.0582 98.4723C11.7246 99.3335 11.4557 100.219 11.2536 101.121C11.0585 102.001 10.8985 102.945 10.593 103.793C10.5466 103.924 10.4954 104.053 10.441 104.177H3.3291C3.3531 104.05 3.37869 103.921 3.40428 103.793C3.76606 101.924 4.33149 100.101 5.09029 98.3577C5.11588 98.2997 5.14147 98.2416 5.17027 98.1835C5.56199 97.3219 6.0226 96.4939 6.54754 95.7077L6.54766 95.7071L6.548 95.7065L6.54853 95.7062L6.54914 95.7061C6.8374 95.2771 7.14705 94.8631 7.47693 94.4657C8.33243 93.4394 9.34299 92.5554 10.4714 91.8463C10.4778 91.8415 10.4858 91.8382 10.4922 91.8334C12.7381 90.4285 15.3999 89.7592 17.9449 90.3382H17.9465C18.012 90.3527 18.076 90.3673 18.1416 90.3834Z" fill="#E6E6E6"/>
<path d="M18.1334 90.4687C18.079 90.4833 18.0247 90.4994 17.9719 90.5155C16.8508 90.8385 15.7687 91.2859 14.7454 91.8494C14.6942 91.8768 14.6431 91.9059 14.5919 91.9349C13.1777 92.7307 11.8941 93.7421 10.7864 94.9334C10.7855 94.9342 10.7849 94.9354 10.7848 94.9366C10.772 94.9495 10.7576 94.964 10.7464 94.9769C10.4904 95.2543 10.2441 95.543 10.0105 95.8398C9.55371 96.3932 9.18561 97.0152 8.91961 97.6834C8.71634 98.2403 8.64459 98.8373 8.71005 99.427C8.71485 99.4867 8.72285 99.5447 8.73085 99.6044C8.73725 99.6512 8.74365 99.698 8.75164 99.7464C8.85722 100.393 9.03958 101.042 8.98839 101.701C8.95724 102.039 8.85548 102.367 8.68978 102.662C8.52408 102.958 8.2982 103.215 8.02701 103.416C7.84267 103.56 7.64562 103.686 7.43835 103.793C7.14201 103.947 6.83325 104.076 6.51537 104.177H5.88672C5.9715 104.153 6.05468 104.129 6.13946 104.105C6.44031 104.019 6.73572 103.915 7.02405 103.793C7.18877 103.724 7.34904 103.644 7.50394 103.555C8.14699 103.182 8.68287 102.611 8.79483 101.848C8.89241 101.18 8.70366 100.513 8.59168 99.8593C8.57249 99.7464 8.55489 99.6351 8.54529 99.5238C8.46892 98.9581 8.51531 98.3825 8.68126 97.8366C8.91142 97.1558 9.25551 96.5197 9.69862 95.9559C9.97272 95.5889 10.2653 95.2363 10.5752 94.8995C10.6136 94.8559 10.6536 94.8124 10.6952 94.7688C11.8262 93.5691 13.1321 92.5504 14.5679 91.7478H14.5695C15.637 91.1486 16.7696 90.6755 17.9447 90.3381H17.9463C17.9991 90.322 18.0535 90.3058 18.1062 90.2913C18.2166 90.2623 18.2422 90.4381 18.1334 90.4687Z" fill="white"/>
<path d="M10.6324 94.9611C10.246 94.5498 10.0172 94.0134 9.98686 93.4478C9.9565 92.8821 10.1265 92.324 10.4666 91.873C10.5357 91.782 10.6792 91.8861 10.61 91.9772C10.2926 92.3965 10.1342 92.9164 10.1636 93.4431C10.1929 93.9698 10.408 94.4686 10.77 94.8494C10.8486 94.9323 10.7105 95.0435 10.6324 94.9611Z" fill="white"/>
<path d="M8.65483 99.4264C9.80256 99.4681 10.9237 99.0721 11.7948 98.3174C11.881 98.2425 11.9917 98.3814 11.9055 98.4562C10.9976 99.2399 9.83008 99.6496 8.63582 99.6035C8.52199 99.5991 8.54162 99.422 8.65483 99.4264Z" fill="white"/>
<path d="M14.7156 91.8036C14.8322 91.9941 14.9939 92.1525 15.1862 92.2644C15.3785 92.3764 15.5954 92.4384 15.8173 92.445C15.9312 92.448 15.9114 92.6251 15.7983 92.6221C15.5531 92.6137 15.3137 92.5449 15.101 92.4217C14.8882 92.2985 14.7087 92.1246 14.5779 91.9153C14.564 91.8966 14.5576 91.8732 14.5601 91.8499C14.5626 91.8267 14.5738 91.8053 14.5914 91.79C14.6097 91.7753 14.633 91.7685 14.6563 91.771C14.6795 91.7736 14.7008 91.7853 14.7156 91.8036Z" fill="white"/>
<path d="M73.0039 28.4247C72.8397 28.6424 72.6302 28.8212 72.3901 28.9485C72.15 29.0757 71.8851 29.1484 71.6142 29.1612C71.3432 29.1741 71.0727 29.1269 70.8218 29.023C70.5709 28.9191 70.3456 28.761 70.1619 28.5598L64.1152 31.2115L64.7042 27.8079L70.3559 25.8116C70.7116 25.5228 71.16 25.3755 71.6162 25.3977C72.0723 25.4199 72.5046 25.6101 72.831 25.9322C73.1574 26.2543 73.3552 26.6859 73.3871 27.1453C73.419 27.6047 73.2826 28.0599 73.0039 28.4247Z" fill="#FFB8B8"/>
<path d="M68.9693 29.4877L54.925 35.7956L54.8948 35.7847L38.8879 30.0332C37.6956 29.4048 36.7866 28.3407 36.347 27.0587C35.9074 25.7766 35.9705 24.3736 36.5234 23.1369C36.8298 22.4536 37.2763 21.8436 37.8335 21.3468C38.3906 20.8501 39.0458 20.478 39.7558 20.2549C40.4659 20.0319 41.2147 19.9631 41.953 20.0529C42.6914 20.1427 43.4025 20.3892 44.0396 20.7761L55.9517 28.0116L67.5028 26.5021L68.9693 29.4877Z" fill="#E6E6E6"/>
<path d="M138 104.308C138 104.333 137.995 104.358 137.985 104.382C137.976 104.405 137.962 104.426 137.944 104.444C137.926 104.462 137.905 104.476 137.882 104.486C137.859 104.495 137.834 104.5 137.809 104.5H0.195236C0.144751 104.5 0.0963348 104.48 0.0606363 104.444C0.0249378 104.408 0.00488281 104.359 0.00488281 104.308C0.00488281 104.257 0.0249378 104.208 0.0606363 104.172C0.0963348 104.136 0.144751 104.116 0.195236 104.116H137.809C137.834 104.116 137.859 104.121 137.882 104.131C137.905 104.14 137.926 104.154 137.944 104.172C137.962 104.19 137.976 104.211 137.985 104.235C137.995 104.258 138 104.283 138 104.308Z" fill="#CCCCCC"/>
<path d="M50.1235 48.3716L35.9659 46.0882C35.5946 45.9683 35.2534 45.7688 34.9658 45.5033C34.6782 45.2379 34.4509 44.9129 34.2996 44.5506C34.1483 44.1882 34.0766 43.7972 34.0893 43.4043C34.1021 43.0113 34.199 42.6258 34.3734 42.2742L35.0154 40.9793L34.766 27.3747C34.736 25.6051 35.1687 23.8587 36.0205 22.3112C36.8724 20.7637 38.1134 19.4697 39.6187 18.5594L40.9993 17.727L41.6971 15.9404L48.1308 16.0987L48.1495 18.4418L50.4536 22.1465L50.4535 22.1618L50.3089 42.3258L49.6739 44.4067L50.6341 46.827L50.1235 48.3716Z" fill="#E6E6E6"/>
<path d="M45.5029 13.7184C48.7314 13.7184 51.3486 11.0794 51.3486 7.82403C51.3486 4.56867 48.7314 1.92969 45.5029 1.92969C42.2744 1.92969 39.6572 4.56867 39.6572 7.82403C39.6572 11.0794 42.2744 13.7184 45.5029 13.7184Z" fill="#FFB8B8"/>
<path d="M39.416 9.109C39.2417 8.36836 39.3217 7.32614 39.4203 6.5804C39.6786 4.62531 40.7554 2.76665 42.3913 1.6657C42.7015 1.42814 43.0701 1.28044 43.4574 1.23852C43.8444 1.22223 44.2639 1.43113 44.3827 1.80288C44.4802 1.55753 44.6265 1.33492 44.8127 1.1488C44.9988 0.962685 45.2208 0.817008 45.4649 0.720764C45.9554 0.531301 46.4828 0.459651 47.0055 0.511492C48.0186 0.595694 48.9901 0.954883 49.8171 1.55094C50.6441 2.14699 51.2956 2.95768 51.7025 3.89697C51.8586 4.27097 52.2947 2.88949 52.4925 3.24287C52.6743 3.6102 52.9915 3.89118 53.3762 4.0257C53.7638 4.13477 53.9212 5.74515 54.0738 5.36964C54.1921 5.64715 54.2389 5.95035 54.2098 6.251C54.1806 6.55166 54.0765 6.83998 53.9071 7.08913C53.7377 7.33828 53.5085 7.54015 53.2409 7.67593C52.9732 7.81171 52.6759 7.87699 52.3765 7.8657C51.982 7.85081 51.6047 7.70449 51.2149 7.6415C49.8208 7.41627 48.3419 8.43558 48.0439 9.82713C47.9372 9.4247 47.7667 9.0423 47.5391 8.69468C47.4236 8.52179 47.2687 8.37921 47.0875 8.27881C46.9063 8.17842 46.7039 8.1231 46.4972 8.11747C46.1006 8.13243 45.752 8.39391 45.4946 8.6986C45.2373 9.00329 45.044 9.35877 44.7847 9.66182C44.024 10.551 42.9952 12.6247 41.9111 12.4735C41.0556 12.3541 39.6541 10.1202 39.416 9.109Z" fill="#2F2E41"/>
<path d="M80.8389 35.1041C80.8798 34.8354 80.825 34.5607 80.6843 34.3289C80.5435 34.097 80.3259 33.9229 80.0699 33.8374L64.3275 28.5506C64.1766 28.4997 64.0168 28.4812 63.8584 28.4963L59.9126 28.8726L57.6485 29.0891L53.4705 29.4872C53.2183 29.5116 52.9811 29.6196 52.7963 29.7945C52.6115 29.9693 52.4895 30.201 52.4494 30.4533L50.3281 43.8145C50.2879 44.0751 50.3371 44.3418 50.4675 44.5704C50.598 44.799 50.8018 44.9759 51.0454 45.072L66.9521 51.2631C67.0268 51.2924 67.1043 51.3134 67.1835 51.3258C67.2987 51.3446 67.416 51.3455 67.5315 51.3284L77.81 49.7923C78.0524 49.757 78.2771 49.6437 78.4506 49.4694C78.6242 49.2951 78.7374 49.069 78.7734 48.8247L80.8389 35.1041Z" fill="white"/>
<path d="M51.4067 44.1309L67.3134 50.3218C67.3366 50.331 67.3618 50.334 67.3865 50.3304L77.6636 48.7945C77.6941 48.7903 77.7224 48.7762 77.7441 48.7543C77.7659 48.7325 77.7801 48.704 77.7844 48.6733L79.851 34.9526C79.8557 34.9191 79.8488 34.885 79.8313 34.8561C79.8138 34.8272 79.7869 34.8053 79.7552 34.7943L79.6493 34.7581L64.0118 29.5087C64.0047 29.5061 63.9973 29.5043 63.9898 29.5033C63.9777 29.5011 63.9653 29.5004 63.953 29.5014L54.329 30.4197L53.5653 30.4919C53.534 30.4953 53.5046 30.5089 53.4816 30.5307C53.4587 30.5525 53.4434 30.5812 53.4382 30.6126L51.3172 43.9732C51.3121 44.0059 51.3181 44.0393 51.3344 44.068C51.3507 44.0967 51.3762 44.1189 51.4067 44.1309Z" fill="#042A62"/>
<path d="M54.3281 30.4197L63.9521 29.5014C63.9644 29.5004 63.9768 29.5011 63.9889 29.5033C63.9964 29.5043 64.0038 29.5061 64.0109 29.5087L79.6484 34.7581L75.5236 35.1984L73.9799 35.3624L69.5872 35.8303C69.5744 35.831 69.5615 35.8308 69.5487 35.8299C69.5409 35.8275 69.5331 35.8251 69.5237 35.8226L54.3281 30.4197Z" fill="#2F2E41"/>
<path d="M51.045 45.0729L66.9517 51.2637C67.0265 51.2928 67.1043 51.3133 67.1837 51.325C67.2989 51.3442 67.4164 51.3456 67.532 51.3293L77.8091 49.7935C78.0516 49.7579 78.2764 49.6445 78.4501 49.4701C78.6237 49.2956 78.7371 49.0695 78.7734 48.8251L80.8385 35.1042C80.869 34.9019 80.8459 34.6951 80.7716 34.5047C80.7611 34.4794 80.7506 34.4541 80.7384 34.4302C80.6565 34.2564 80.5319 34.1066 80.3763 33.9951C80.2827 33.9273 80.1793 33.8742 80.0699 33.8376L80.0512 33.8309L64.3283 28.5506C64.264 28.5299 64.1984 28.5139 64.132 28.5025C64.0411 28.4895 63.949 28.4877 63.8577 28.4971L59.9125 28.8721L57.6487 29.0898L53.4699 29.4877C53.299 29.5038 53.1339 29.5588 52.9871 29.6486C52.9758 29.6541 52.9649 29.6606 52.9547 29.6681C52.9474 29.6729 52.9405 29.6782 52.9339 29.6839C52.8057 29.7722 52.6967 29.8858 52.6135 30.0179C52.5302 30.15 52.4745 30.2978 52.4498 30.4523L50.3271 43.8144C50.287 44.0752 50.3362 44.3421 50.4668 44.5709C50.5973 44.7996 50.8012 44.9767 51.045 45.0729ZM52.7314 30.4989C52.7572 30.3387 52.8276 30.1893 52.9345 30.068C52.9669 30.029 53.0031 29.9934 53.0426 29.9617C53.1505 29.8738 53.2781 29.8138 53.4143 29.7869C53.4412 29.7813 53.4684 29.7775 53.4957 29.7753L60.5316 29.1051L63.8852 28.7833C63.9079 28.7807 63.9288 28.7811 63.9498 28.7798C64.0006 28.7788 64.0513 28.7826 64.1014 28.7912C64.1474 28.7972 64.1927 28.8081 64.2365 28.8237L79.9781 34.1107C79.9906 34.1151 80.0014 34.1194 80.0138 34.1238C80.1569 34.1775 80.2827 34.2698 80.3774 34.3906C80.4523 34.483 80.5069 34.5904 80.5378 34.7056C80.5687 34.8208 80.5752 34.9413 80.5567 35.0592L78.4899 48.7816C78.4628 48.9646 78.378 49.1339 78.2482 49.2647C78.1183 49.3954 77.9502 49.4806 77.7687 49.5076L67.49 51.0434C67.3429 51.0646 67.193 51.0474 67.0544 50.9933L51.1476 44.8041C50.9653 44.7316 50.8128 44.5988 50.7152 44.4275C50.6175 44.2562 50.5805 44.0565 50.6103 43.8611L52.7314 30.4989Z" fill="#3F3D56"/>
<path d="M52.9002 29.7562C52.9087 29.7319 52.9235 29.7104 52.9431 29.6939C52.9496 29.6887 52.9565 29.6839 52.9637 29.6797C52.9704 29.6771 52.9772 29.6729 52.9839 29.6703C53.0158 29.6574 53.0514 29.6568 53.0837 29.6686L53.4148 29.7864L69.5895 35.5396L73.3751 35.1363L75.4934 34.9111L79.9771 34.4324L80.378 34.39L80.4559 34.3813C80.4895 34.3783 80.5231 34.3871 80.551 34.4063C80.5788 34.4256 80.599 34.454 80.6082 34.4868C80.6104 34.4943 80.6118 34.502 80.6125 34.5098C80.6158 34.5409 80.609 34.5722 80.5931 34.599C80.5772 34.6258 80.5532 34.6467 80.5245 34.6585C80.5118 34.6638 80.4985 34.6675 80.4849 34.6693L79.9395 34.7269L75.5241 35.1976L73.9804 35.3615L69.5878 35.8295C69.5749 35.8301 69.5621 35.83 69.5492 35.829C69.5414 35.8267 69.5336 35.8243 69.5242 35.8218L53.0431 29.9612L52.9872 29.9412C52.9743 29.937 52.9624 29.9303 52.9521 29.9216C52.9271 29.9032 52.9087 29.8772 52.8993 29.8475C52.89 29.8178 52.8903 29.7858 52.9002 29.7562Z" fill="#3F3D56"/>
<path d="M67.2278 51.3666C67.1906 51.3606 67.1572 51.34 67.135 51.3093C67.1127 51.2786 67.1034 51.2403 67.109 51.2028L69.4312 35.6647C69.4368 35.6269 69.4572 35.5929 69.4877 35.5702C69.5182 35.5475 69.5564 35.5379 69.5939 35.5436L69.5951 35.5438C69.6323 35.5498 69.6657 35.5704 69.688 35.6011C69.7102 35.6318 69.7195 35.6701 69.7139 35.7076L67.3918 51.2457C67.3861 51.2835 67.3658 51.3175 67.3353 51.3402C67.3048 51.3629 67.2666 51.3725 67.2291 51.3668L67.2278 51.3666Z" fill="#3F3D56"/>
<path d="M73.1137 50.3811L71.5693 50.5454L73.3758 35.1363C73.3758 35.1363 75.4385 34.7597 75.4937 34.9107C75.5276 35.0009 73.1285 50.2823 73.1137 50.3811Z" fill="#3F3D56"/>
<path d="M52.9879 29.9414L52.9463 36.9685L65.2835 41.7086L69.714 35.7078L52.9879 29.9414Z" fill="#3F3D56"/>
<path d="M80.3786 34.3909C80.2754 34.2603 80.1366 34.1629 79.9792 34.1109L64.2379 28.824C64.1937 28.809 64.1483 28.7979 64.1023 28.7907C64.052 28.782 64.0011 28.7782 63.9502 28.7792L63.9757 28.6184L64.1333 28.5033L67.8713 25.7744L80.3549 29.6321L80.3766 33.9953L80.3786 34.3909Z" fill="#3F3D56"/>
<path d="M53.6161 41.2228C53.6338 41.2245 53.6513 41.2282 53.6682 41.2338L58.4981 42.8333C58.5586 42.8533 58.6087 42.8967 58.6374 42.954C58.6661 43.0113 58.6711 43.0777 58.6513 43.1387C58.6314 43.1996 58.5884 43.2502 58.5316 43.2791C58.4748 43.3081 58.4089 43.3131 58.3484 43.2931L53.5186 41.6936C53.4625 41.675 53.4152 41.6362 53.3857 41.5847C53.3562 41.5332 53.3465 41.4725 53.3586 41.4142C53.3706 41.356 53.4036 41.3042 53.4511 41.2689C53.4986 41.2336 53.5573 41.2172 53.6161 41.2228Z" fill="white"/>
<path d="M73.1031 70.7011C74.1633 70.7011 75.0227 69.8346 75.0227 68.7656C75.0227 67.6966 74.1633 66.8301 73.1031 66.8301C72.043 66.8301 71.1836 67.6966 71.1836 68.7656C71.1836 69.8346 72.043 70.7011 73.1031 70.7011Z" fill="#F2F2F2"/>
<path d="M24.1549 77.7978C25.215 77.7978 26.0744 76.9312 26.0744 75.8623C26.0744 74.7933 25.215 73.9268 24.1549 73.9268C23.0948 73.9268 22.2354 74.7933 22.2354 75.8623C22.2354 76.9312 23.0948 77.7978 24.1549 77.7978Z" fill="#F2F2F2"/>
<path d="M64.1451 13.7646C65.2053 13.7646 66.0647 12.898 66.0647 11.8291C66.0647 10.7601 65.2053 9.89355 64.1451 9.89355C63.085 9.89355 62.2256 10.7601 62.2256 11.8291C62.2256 12.898 63.085 13.7646 64.1451 13.7646Z" fill="#F2F2F2"/>
<path d="M67.2944 44.0687C67.0456 44.1777 66.7761 44.2304 66.505 44.223C66.2338 44.2156 65.9675 44.1484 65.7249 44.026C65.4823 43.9036 65.2693 43.7291 65.1008 43.5148C64.9324 43.3004 64.8125 43.0514 64.7498 42.7853L58.1895 42.117L60.3538 39.4385L66.2518 40.4838C66.7021 40.4072 67.1647 40.4998 67.5518 40.7441C67.9389 40.9884 68.2237 41.3674 68.3523 41.8093C68.4808 42.2512 68.4441 42.7253 68.2491 43.1417C68.0541 43.5581 67.7144 43.888 67.2944 44.0687Z" fill="#FFB8B8"/>
<path d="M63.2599 43.0067L47.9502 41.5843L47.9292 41.56L36.7557 28.6506C36.0204 27.5147 35.7435 26.1382 35.9818 24.8032C36.2201 23.4681 36.9555 22.2754 38.0375 21.4693C38.6362 21.0243 39.3215 20.7123 40.0484 20.5537C40.7753 20.3951 41.5272 20.3936 42.2548 20.5491C42.9823 20.7047 43.6689 21.0138 44.2694 21.4562C44.8699 21.8986 45.3706 22.4643 45.7387 23.1159L52.6207 35.3007L63.4286 39.6794L63.2599 43.0067Z" fill="#E6E6E6"/>
<path d="M101.686 18.181C101.306 15.369 100.829 12.3499 98.8623 10.32C98.2382 9.67591 97.4912 9.16593 96.6663 8.8208C95.8415 8.47568 94.9558 8.30256 94.0628 8.31188C93.1698 8.3212 92.2879 8.51277 91.4703 8.87503C90.6527 9.2373 89.9163 9.76276 89.3055 10.4197C87.8738 11.9599 87.2415 14.1225 87.1836 16.2327C87.1257 18.343 87.5918 20.4297 88.1089 22.4754C90.8452 22.5305 93.5612 21.9914 96.0727 20.8948C96.7008 20.6199 97.3187 20.3092 97.9822 20.1389C98.6457 19.9686 99.1186 20.3971 99.7358 20.6959L100.075 20.0418C100.352 20.5622 101.211 20.408 101.522 19.9076C101.834 19.4072 101.765 18.7663 101.686 18.181Z" fill="#2F2E41"/>
<path d="M90.8398 33.8753L79.6623 34.1163C79.4906 33.8172 79.2364 33.5747 78.9306 33.4185C78.6249 33.2623 78.2806 33.1991 77.9399 33.2366C77.5991 33.2741 77.2765 33.4106 77.0113 33.6296C76.746 33.8486 76.5497 34.1406 76.446 34.4701C76.3424 34.7995 76.336 35.1523 76.4275 35.4854C76.5191 35.8184 76.7047 36.1175 76.9617 36.3462C77.2188 36.5749 77.5362 36.7233 77.8753 36.7734C78.2145 36.8234 78.5608 36.7731 78.8721 36.6283C80.3546 36.7133 91.9525 38.3731 92.6444 37.3034C93.3467 36.2177 97.0953 32.3862 97.0953 32.3862L94.2139 28.25L90.8398 33.8753Z" fill="#9E616A"/>
<path d="M93.5641 20.9627C96.4645 20.9627 98.8157 18.5919 98.8157 15.6674C98.8157 12.7429 96.4645 10.3721 93.5641 10.3721C90.6637 10.3721 88.3125 12.7429 88.3125 15.6674C88.3125 18.5919 90.6637 20.9627 93.5641 20.9627Z" fill="#9E616A"/>
<path d="M101.975 25.8562C101.356 24.6142 101.056 23.08 99.7363 22.6773C98.8454 22.4055 95.2419 22.8129 94.4299 23.2719C93.0792 24.0353 94.3032 25.4658 93.5064 26.8045C92.6401 28.2598 90.286 31.1804 89.4198 32.6357C88.8243 33.6362 90.8302 36.5728 90.5082 37.6936C90.1862 38.8143 90.1707 40.0722 90.7193 41.0996C91.2102 42.0192 90.4999 42.8327 90.9936 43.7508C91.507 44.7056 92.1371 48.2756 91.6593 49.249L91.3393 50.2167C94.5141 50.4048 97.1835 46.5805 100.339 46.1776C101.122 46.0776 101.936 45.9469 102.582 45.4882C103.533 44.8126 103.909 43.5867 104.144 42.4377C105.275 36.8213 104.512 30.9849 101.975 25.8562Z" fill="#3F3D56"/>
<path d="M106.735 38.9697C106.293 37.7526 105.492 32.4313 105.492 32.4313L100.482 32.2832L102.931 38.3756L96.2465 47.8117C96.2465 47.8117 96.2589 47.8325 96.2814 47.8694C95.9299 47.8126 95.5696 47.864 95.2476 48.017C94.9256 48.1701 94.6569 48.4175 94.4767 48.727C94.2965 49.0366 94.2131 49.3937 94.2376 49.7518C94.262 50.1099 94.393 50.4522 94.6136 50.734C94.8341 51.0157 95.1338 51.2238 95.4736 51.3309C95.8133 51.438 96.1772 51.4393 96.5176 51.3344C96.8581 51.2296 97.1592 51.0236 97.3816 50.7434C97.604 50.4631 97.7374 50.1217 97.7642 49.7638C97.7888 49.778 97.8176 49.7832 97.8455 49.7783C97.8735 49.7735 97.8989 49.759 97.9174 49.7373C98.6613 48.7961 107.177 40.1867 106.735 38.9697Z" fill="#9E616A"/>
<path d="M107.244 35.6093C106.784 33.652 106.321 31.6841 105.545 29.8309C104.77 27.9776 103.66 26.2271 102.098 24.975C101.599 24.5747 101.041 24.2214 100.416 24.097C99.7899 23.9725 99.0847 24.1118 98.6453 24.5778C97.9421 25.3236 98.1537 26.5206 98.4116 27.5163C99.1721 30.4519 99.9326 33.3875 100.693 36.3231C102.889 36.0884 105.085 35.8537 107.282 35.6189L107.244 35.6093Z" fill="#3F3D56"/>
<path d="M99.9988 16.4016C99.8054 15.1206 99.6034 13.8289 99.1491 12.6227C98.6947 11.4165 97.9623 10.2867 96.9118 9.60344C95.2483 8.52163 93.0947 8.73028 91.2298 9.35256C89.7875 9.83381 88.3796 10.5653 87.3626 11.7412C86.3454 12.9172 85.7742 14.5951 86.1525 16.1327C88.1419 15.6588 90.1313 15.1849 92.1206 14.7109L91.9028 14.8661C92.556 15.1945 93.1264 15.6687 93.5707 16.2526C94.0151 16.8365 94.3216 17.5148 94.4671 18.236C94.6094 18.9659 94.589 19.7186 94.4073 20.4397C94.2257 21.1607 93.8874 21.832 93.4169 22.405C94.7736 21.9197 96.1304 21.4344 97.4871 20.9491C98.3246 20.6496 99.2208 20.3045 99.7174 19.5361C100.293 18.6453 100.159 17.4646 99.9988 16.4016Z" fill="#2F2E41"/>
</g>
<defs>
<clipPath id="clip0_759_9215">
<rect width="138" height="104" fill="white" transform="translate(0 0.5)"/>
</clipPath>
</defs>
</svg>
