<svg width="148" height="135" viewBox="0 0 148 135" fill="none" xmlns="http://www.w3.org/2000/svg">
<g clip-path="url(#clip0_759_9223)">
<path d="M102.274 134.66H60.2795C53.9808 134.66 48.8564 129.505 48.8564 123.169V11.4913C48.8564 5.155 53.9808 0 60.2795 0H102.274C108.572 0 113.697 5.155 113.697 11.4913C114.479 56.3375 115.812 106.558 113.697 123.169C113.697 129.505 108.572 134.66 102.274 134.66Z" fill="#3F3D56"/>
<path d="M114.283 41.0781C114.017 41.0781 113.8 41.2961 113.8 41.5643V57.1206C113.8 57.3888 114.017 57.6068 114.283 57.6068C114.55 57.6068 114.766 57.3888 114.766 57.1206V41.5643C114.766 41.2961 114.55 41.0781 114.283 41.0781Z" fill="#3F3D56"/>
<path d="M112.61 11.4912V123.167C112.61 128.682 108.343 133.193 102.947 133.543H102.945C102.865 133.548 102.786 133.553 102.703 133.555C102.561 133.563 102.418 133.565 102.273 133.565C102.273 133.565 101.742 133.526 100.77 133.453C99.7895 133.38 98.3615 133.271 96.5807 133.128C96.0467 133.086 95.4837 133.04 94.8893 132.991C93.7054 132.894 92.4054 132.787 91.0113 132.666C90.4555 132.62 89.8804 132.568 89.2933 132.517C86.2923 132.257 82.9313 131.954 79.3867 131.608C78.7875 131.552 78.1834 131.494 77.5745 131.433C77.415 131.416 49.9443 124.469 49.9443 123.167V11.4912C49.9443 5.74754 54.5715 1.09277 60.281 1.09277H66.4521C67.438 1.09277 68.2305 1.86573 68.3151 2.85502C68.3223 2.92065 68.3296 2.98627 68.3416 3.05191C68.5204 4.04606 69.4265 4.7388 70.4317 4.7388H92.1227C93.1279 4.7388 94.034 4.04606 94.2128 3.05191C94.2249 2.98627 94.2321 2.92065 94.2394 2.85502C94.3239 1.86573 95.1164 1.09277 96.1023 1.09277H102.273C107.983 1.09277 112.61 5.74754 112.61 11.4912Z" fill="white"/>
<path d="M48.6151 29.4111C48.3486 29.4111 48.1318 29.6292 48.1318 29.8973V33.7864C48.1318 34.0545 48.3486 34.2725 48.6151 34.2725C48.8816 34.2725 49.0983 34.0545 49.0983 33.7864V29.8973C49.0983 29.6292 48.8816 29.4111 48.6151 29.4111Z" fill="#3F3D56"/>
<path d="M48.6151 41.0781C48.3486 41.0781 48.1318 41.2962 48.1318 41.5643V49.0994C48.1318 49.3675 48.3486 49.5855 48.6151 49.5855C48.8816 49.5855 49.0983 49.3675 49.0983 49.0994V41.5643C49.0983 41.2961 48.8816 41.0781 48.6151 41.0781Z" fill="#3F3D56"/>
<path d="M48.6151 51.7734C48.3486 51.7734 48.1318 51.9915 48.1318 52.2596V59.7947C48.1318 60.0628 48.3486 60.2808 48.6151 60.2808C48.8816 60.2808 49.0983 60.0628 49.0983 59.7947V52.2596C49.0983 51.9915 48.8816 51.7734 48.6151 51.7734Z" fill="#3F3D56"/>
<path d="M66.2933 2.79492H57.0324C56.9876 2.79492 56.9512 2.83152 56.9512 2.87667V3.92852C56.9512 3.97366 56.9876 4.01026 57.0324 4.01026H66.2933C66.3381 4.01026 66.3745 3.97366 66.3745 3.92852V2.87667C66.3745 2.83152 66.3381 2.79492 66.2933 2.79492Z" fill="#E6E6E6"/>
<path d="M97.6286 4.01095C98.1624 4.01095 98.5951 3.57565 98.5951 3.03868C98.5951 2.50171 98.1624 2.06641 97.6286 2.06641C97.0948 2.06641 96.6621 2.50171 96.6621 3.03868C96.6621 3.57565 97.0948 4.01095 97.6286 4.01095Z" fill="#E6E6E6"/>
<path d="M100.287 4.01095C100.821 4.01095 101.253 3.57565 101.253 3.03868C101.253 2.50171 100.821 2.06641 100.287 2.06641C99.753 2.06641 99.3203 2.50171 99.3203 3.03868C99.3203 3.57565 99.753 4.01095 100.287 4.01095Z" fill="#E6E6E6"/>
<path d="M102.945 4.01095C103.479 4.01095 103.912 3.57565 103.912 3.03868C103.912 2.50171 103.479 2.06641 102.945 2.06641C102.411 2.06641 101.979 2.50171 101.979 3.03868C101.979 3.57565 102.411 4.01095 102.945 4.01095Z" fill="#E6E6E6"/>
<path d="M3.75 134.687C3.75 134.861 3.88884 135 4.06174 135H147.689C147.861 135 148 134.861 148 134.687C148 134.513 147.861 134.373 147.689 134.373H4.06174C3.88884 134.373 3.75 134.513 3.75 134.687Z" fill="#CCCCCC"/>
<path d="M49.5447 132.627L46.5994 132.627L45.1982 121.198L49.5453 121.199L49.5447 132.627Z" fill="#FFB6B6"/>
<path d="M39.4536 132.56C39.3619 132.715 39.3135 133.217 39.3135 133.397C39.3135 133.953 39.761 134.403 40.3131 134.403H49.4345C49.8112 134.403 50.1165 134.096 50.1165 133.717V133.335C50.1165 133.335 50.5677 132.187 49.6387 130.771C49.6387 130.771 48.4841 131.88 46.7588 130.144L46.25 129.217L42.5672 131.926L40.5259 132.179C40.0793 132.234 39.6833 132.171 39.4536 132.56Z" fill="#2F2E41"/>
<path d="M33.2557 116.753L30.3104 116.744L28.9453 105.311L33.2923 105.325L33.2557 116.753Z" fill="#FFB6B6"/>
<path d="M23.1652 116.654C23.073 116.809 23.023 117.311 23.0225 117.491C23.0207 118.047 23.4668 118.498 24.0189 118.5L33.1403 118.529C33.5169 118.53 33.8232 118.224 33.8244 117.845L33.8256 117.463C33.8256 117.463 34.2805 116.317 33.356 114.898C33.356 114.898 32.1979 116.003 30.478 114.262L29.9722 113.333L26.2808 116.031L24.2387 116.277C23.7919 116.331 23.3962 116.266 23.1652 116.654Z" fill="#2F2E41"/>
<path d="M45.2488 63.2451L41.5815 63.5086C41.5815 63.5086 29.166 70.6098 28.1182 72.1909C27.0704 73.772 25.6296 76.012 26.9394 78.3836C28.2492 80.7553 27.2523 109.472 27.2523 109.472L33.5111 108.047L37.5212 78.0022L45.9037 76.8164C45.9037 76.8164 48.7852 83.0703 47.7374 88.2442C46.6896 93.4181 46.1657 96.5803 46.1657 96.5803L44.8559 127.149L49.964 127.017L54.5482 98.6885L62.4068 76.2893L52.1906 64.1674L45.2488 63.2451Z" fill="#2F2E41"/>
<path d="M63.3235 30.832L55.7268 31.6226L54.941 34.2578L47.6063 38.2106L49.9639 54.8123L48.1302 57.711L48.916 60.6097C48.916 60.6097 46.8204 60.8732 47.0824 62.4544L42.3672 63.2449C42.3672 63.2449 48.6211 64.5293 49.9474 70.8704C51.2736 77.2114 62.2757 78.002 62.2757 78.002L70.9202 50.8595L71.7061 34.7848L65.6811 33.2037L63.3235 30.832Z" fill="#E6E6E6"/>
<path d="M59.3196 29.8317C62.5811 29.8317 65.225 27.172 65.225 23.891C65.225 20.61 62.5811 17.9502 59.3196 17.9502C56.058 17.9502 53.4141 20.61 53.4141 23.891C53.4141 27.172 56.058 29.8317 59.3196 29.8317Z" fill="#FFB6B6"/>
<path d="M56.2507 29.2502C56.2507 29.2502 51.0116 28.9867 51.5355 24.7704C50.2388 20.2804 51.3865 17.3652 55.4648 16.3377C55.4648 16.3377 56.5126 16.0742 56.7746 16.0742C60.2201 16.0742 62.0137 17.1283 62.0137 17.1283C62.0137 17.1283 61.7517 16.0846 62.0137 16.3429C62.2756 16.6013 62.5376 17.1283 62.5376 17.1283C62.5376 17.1283 65.1571 18.4459 65.1571 21.0811C65.1571 23.7163 65.1571 22.6622 65.1571 22.6622C65.1571 22.6622 64.6332 22.6622 64.1093 21.0811C63.5854 19.5 60.1934 20.554 60.1934 20.554L60.4419 21.0811L59.6561 20.8176L58.8702 21.6081L58.3463 21.3446C58.3463 21.3446 56.2507 21.3446 56.5126 21.3446C56.7746 21.3446 56.592 23.1355 56.592 23.1355L54.679 25.2974L56.7746 29.2502H56.2507Z" fill="#2F2E41"/>
<path d="M28.3385 60.7027C26.8471 61.5215 26.058 62.9593 26.576 63.914C27.094 64.8688 28.7229 64.979 30.2143 64.1601C30.8671 63.8017 31.3854 63.3247 31.7183 62.8215L37.9946 59.2721L36.2761 56.3447L30.2714 60.1544C29.6706 60.1639 28.9914 60.3443 28.3385 60.7027Z" fill="#FFB6B6"/>
<path d="M49.5036 38.3331C49.5036 38.3331 47.0433 37.3907 46.1956 38.525C45.3479 39.6594 39.7481 53.4231 39.7481 53.4231L31.5322 57.7396L33.8426 61.7869L44.4222 58.2436L51.4024 45.4013L49.5036 38.3331Z" fill="#E6E6E6"/>
<path d="M127.087 83.5355V111.469C127.087 113.939 125.09 115.948 122.634 115.948H54.002C51.5465 115.948 49.5488 113.939 49.5488 111.469V83.5355C49.5488 81.0653 51.5465 79.0557 54.002 79.0557H122.634C125.09 79.0557 127.087 81.0653 127.087 83.5355Z" fill="white"/>
<path d="M127.087 83.5355V111.469C127.087 113.939 125.09 115.948 122.634 115.948H54.002C51.5465 115.948 49.5488 113.939 49.5488 111.469V83.5355C49.5488 81.0653 51.5465 79.0557 54.002 79.0557H122.634C125.09 79.0557 127.087 81.0653 127.087 83.5355ZM122.634 115.421C124.804 115.421 126.563 113.652 126.563 111.469V97.3858C126.563 87.5534 118.64 79.5827 108.866 79.5827H54.002C51.8319 79.5827 50.0727 81.3524 50.0727 83.5355V111.469C50.0727 113.652 51.8319 115.421 54.002 115.421H122.634Z" fill="#3F3D56"/>
<path d="M80.3575 95.9316H71.3933C71.1673 95.9316 70.9834 96.1165 70.9834 96.3439C70.9834 96.5712 71.1673 96.7562 71.3933 96.7562H80.3575C80.5835 96.7562 80.7673 96.5712 80.7673 96.3439C80.7673 96.1165 80.5835 95.9316 80.3575 95.9316Z" fill="#0858CE"/>
<path d="M93.9796 95.9316H85.0153C84.7894 95.9316 84.6055 96.1165 84.6055 96.3439C84.6055 96.5712 84.7894 96.7562 85.0153 96.7562H93.9796C94.2056 96.7562 94.3894 96.5712 94.3894 96.3439C94.3894 96.1165 94.2056 95.9316 93.9796 95.9316Z" fill="#0858CE"/>
<path d="M80.3575 100.439H71.3933C71.1673 100.439 70.9834 100.624 70.9834 100.852C70.9834 101.079 71.1673 101.264 71.3933 101.264H80.3575C80.5835 101.264 80.7673 101.079 80.7673 100.852C80.7673 100.624 80.5835 100.439 80.3575 100.439Z" fill="#0858CE"/>
<path d="M93.9796 100.439H85.0153C84.7894 100.439 84.6055 100.624 84.6055 100.852C84.6055 101.079 84.7894 101.264 85.0153 101.264H93.9796C94.2056 101.264 94.3894 101.079 94.3894 100.852C94.3894 100.624 94.2056 100.439 93.9796 100.439Z" fill="#0858CE"/>
<path d="M108.01 100.852C108.01 100.624 107.827 100.439 107.601 100.439H98.6364C98.4105 100.439 98.2266 100.624 98.2266 100.852C98.2266 101.079 98.4105 101.264 98.6364 101.264H107.601C107.827 101.264 108.01 101.079 108.01 100.852Z" fill="#0858CE"/>
<path d="M75.1183 92.3324C75.3443 92.3324 75.5281 92.1474 75.5281 91.9201C75.5281 91.6927 75.3443 91.5078 75.1183 91.5078H66.154C65.928 91.5078 65.7441 91.6927 65.7441 91.9201C65.7441 92.1474 65.928 92.3324 66.154 92.3324H75.1183Z" fill="#0858CE"/>
<path d="M101.518 92.1644H110.483C110.709 92.1644 110.892 91.9794 110.892 91.7521C110.892 91.5247 110.709 91.3398 110.483 91.3398H101.518C101.292 91.3398 101.108 91.5247 101.108 91.7521C101.108 91.9794 101.292 92.1644 101.518 92.1644Z" fill="#0858CE"/>
<path d="M78.8943 92.2513H97.4791C97.7051 92.2513 97.8889 92.0664 97.8889 91.839C97.8889 91.6117 97.7051 91.4268 97.4791 91.4268H78.8943C78.6683 91.4268 78.4844 91.6117 78.4844 91.839C78.4844 92.0664 78.6683 92.2513 78.8943 92.2513Z" fill="#0858CE"/>
<path d="M86.2071 104.535H77.2429C77.0169 104.535 76.833 104.72 76.833 104.947C76.833 105.175 77.0169 105.36 77.2429 105.36H86.2071C86.4331 105.36 86.6169 105.175 86.6169 104.947C86.6169 104.72 86.4331 104.535 86.2071 104.535Z" fill="#0858CE"/>
<path d="M115.158 83.3246V111.258C115.158 113.728 113.16 115.737 110.705 115.737H82.9376C80.482 115.737 78.4844 113.728 78.4844 111.258V83.3246C78.4844 80.8543 80.482 78.8447 82.9376 78.8447H110.705C113.16 78.8447 115.158 80.8543 115.158 83.3246Z" fill="white"/>
<path d="M115.158 83.3246V111.258C115.158 113.728 113.16 115.737 110.705 115.737H82.9376C80.482 115.737 78.4844 113.728 78.4844 111.258V83.3246C78.4844 80.8543 80.482 78.8447 82.9376 78.8447H110.705C113.16 78.8447 115.158 80.8543 115.158 83.3246ZM108.982 115.21C112.104 115.21 114.634 112.665 114.634 109.525V97.1749C114.634 87.3425 106.711 79.3718 96.9367 79.3718H82.9376C80.7675 79.3718 79.0083 81.1415 79.0083 83.3246V107.36C79.0083 111.696 82.502 115.21 86.8117 115.21L108.982 115.21Z" fill="#3F3D56"/>
<path d="M100.518 90.2533H91.5534C91.3274 90.2533 91.1436 90.0683 91.1436 89.841C91.1436 89.6136 91.3274 89.4287 91.5534 89.4287H100.518C100.744 89.4287 100.927 89.6136 100.927 89.841C100.927 90.0683 100.744 90.2533 100.518 90.2533Z" fill="#0858CE"/>
<path d="M100.518 99.0453H91.5534C91.3274 99.0453 91.1436 98.8603 91.1436 98.633C91.1436 98.4056 91.3274 98.2207 91.5534 98.2207H100.518C100.744 98.2207 100.927 98.4056 100.927 98.633C100.927 98.8603 100.744 99.0453 100.518 99.0453Z" fill="#0858CE"/>
<path d="M96.0645 111.167H87.1003C86.8743 111.167 86.6904 110.982 86.6904 110.755C86.6904 110.528 86.8743 110.343 87.1003 110.343H96.0645C96.2905 110.343 96.4743 110.528 96.4743 110.755C96.4743 110.982 96.2905 111.167 96.0645 111.167Z" fill="#0858CE"/>
<path d="M105.328 94.6517H86.7429C86.5169 94.6517 86.333 94.4667 86.333 94.2394C86.333 94.0121 86.5169 93.8271 86.7429 93.8271H105.328C105.554 93.8271 105.738 94.0121 105.738 94.2394C105.738 94.4667 105.554 94.6517 105.328 94.6517Z" fill="#0858CE"/>
<path d="M109.934 67.8465C109.934 59.1327 102.613 54.3391 94.25 52.0687C83.528 49.1579 75.6754 55.0481 78.566 67.8465C79.2211 70.7472 80.788 74.135 82.7275 77.0329H98.1183C103.259 73.6658 109.934 74.6101 109.934 67.8465Z" fill="#0858CE"/>
<path d="M94.0195 84.3192C94.895 82.6402 96.0049 81.4289 97.2279 80.5068H82.8125C86.5227 85.8383 91.443 89.26 94.0195 84.3192Z" fill="#0858CE"/>
<path d="M92.3562 58.5176C93.2816 58.5176 94.0318 59.2724 94.0318 60.2033V63.5747H90.6805V60.2033C90.6805 59.2724 91.4307 58.5176 92.3562 58.5176ZM94.8697 63.5747V60.2033C94.8697 58.8069 93.7443 57.6748 92.3562 57.6748C90.968 57.6748 89.8427 58.8069 89.8427 60.2033V63.5747C88.9172 63.5747 88.167 64.3294 88.167 65.2604V69.4746C88.167 70.4055 88.9172 71.1603 89.8427 71.1603H94.8697C95.7951 71.1603 96.5453 70.4055 96.5453 69.4746V65.2604C96.5453 64.3294 95.7951 63.5747 94.8697 63.5747ZM89.8427 64.4175H94.8697C95.3324 64.4175 95.7075 64.7949 95.7075 65.2604V69.4746C95.7075 69.94 95.3324 70.3174 94.8697 70.3174H89.8427C89.3799 70.3174 89.0048 69.94 89.0048 69.4746V65.2604C89.0048 64.7949 89.3799 64.4175 89.8427 64.4175Z" fill="white"/>
<path d="M68.4095 78.1446C68.2074 79.8417 68.9139 81.3223 69.9875 81.4516C71.061 81.5809 72.0951 80.31 72.2971 78.6129C72.3856 77.8701 72.2999 77.1687 72.0856 76.604L72.852 69.4021L69.4848 69.1123L69.0866 76.2427C68.7458 76.7405 68.4979 77.4017 68.4095 78.1446Z" fill="#FFB6B6"/>
<path d="M69.217 35.1801C69.217 35.1801 72.8844 34.126 73.6702 35.7072C74.4561 37.2883 76.2898 58.1063 76.2898 58.1063L72.7534 74.7236L68.6931 73.654L70.7887 56.7887L67.9072 44.1398L69.217 35.1801Z" fill="#E6E6E6"/>
<path d="M15.3243 85.7331C23.7877 85.7331 30.6486 78.8312 30.6486 70.3173C30.6486 61.8033 23.7877 54.9014 15.3243 54.9014C6.86093 54.9014 0 61.8033 0 70.3173C0 78.8312 6.86093 85.7331 15.3243 85.7331Z" fill="#0858CE"/>
<path d="M15.324 63.4156C16.4066 63.4156 17.2841 64.2984 17.2841 65.3874V69.331H13.364V65.3874C13.364 64.2984 14.2415 63.4156 15.324 63.4156ZM18.2642 69.331V65.3874C18.2642 63.7539 16.9478 62.4297 15.324 62.4297C13.7003 62.4297 12.3839 63.7539 12.3839 65.3874V69.331C11.3014 69.331 10.4238 70.2138 10.4238 71.3028V76.2323C10.4238 77.3213 11.3014 78.2041 12.3839 78.2041H18.2642C19.3467 78.2041 20.2243 77.3213 20.2243 76.2323V71.3028C20.2243 70.2138 19.3467 69.331 18.2642 69.331ZM12.3839 70.3169H18.2642C18.8054 70.3169 19.2442 70.7583 19.2442 71.3028V76.2323C19.2442 76.7768 18.8054 77.2182 18.2642 77.2182H12.3839C11.8427 77.2182 11.4039 76.7768 11.4039 76.2323V71.3028C11.4039 70.7583 11.8427 70.3169 12.3839 70.3169Z" fill="white"/>
</g>
<defs>
<clipPath id="clip0_759_9223">
<rect width="148" height="135" fill="white"/>
</clipPath>
</defs>
</svg>
