<svg width="57" height="56" viewBox="0 0 57 56" fill="none" xmlns="http://www.w3.org/2000/svg">
<rect x="0.5" width="56" height="56" rx="28" fill="#0BB2CB"/>
<rect x="0.5" width="56" height="56" rx="28" fill="white" fill-opacity="0.9"/>
<path d="M29.9535 23.6257C29.9535 24.4311 29.3005 25.084 28.4951 25.084C27.6897 25.084 27.0368 24.4311 27.0368 23.6257C27.0368 22.8202 27.6897 22.1673 28.4951 22.1673C29.3005 22.1673 29.9535 22.8202 29.9535 23.6257Z" fill="#0BB2CB"/>
<path d="M28.4906 33.834C29.1349 33.834 29.6572 33.3117 29.6572 32.6673V27.4173C29.6572 26.773 29.1349 26.2507 28.4906 26.2507C27.8462 26.2507 27.3239 26.773 27.3239 27.4173V32.6673C27.3239 33.3117 27.8462 33.834 28.4906 33.834Z" fill="#0BB2CB"/>
<path fill-rule="evenodd" clip-rule="evenodd" d="M40.1663 28.0007C40.1663 34.444 34.943 39.6673 28.4997 39.6673C22.0564 39.6673 16.833 34.444 16.833 28.0007C16.833 21.5573 22.0564 16.334 28.4997 16.334C34.943 16.334 40.1663 21.5573 40.1663 28.0007ZM37.833 28.0007C37.833 33.1553 33.6543 37.334 28.4997 37.334C23.345 37.334 19.1663 33.1553 19.1663 28.0007C19.1663 22.846 23.345 18.6673 28.4997 18.6673C33.6543 18.6673 37.833 22.846 37.833 28.0007Z" fill="#0BB2CB"/>
</svg>
