<svg width="57" height="56" viewBox="0 0 57 56" fill="none" xmlns="http://www.w3.org/2000/svg">
<rect x="0.5" width="56" height="56" rx="28" fill="#D6293A"/>
<rect x="0.5" width="56" height="56" rx="28" fill="white" fill-opacity="0.9"/>
<path d="M28.4997 22.1673C27.8553 22.1673 27.333 22.6897 27.333 23.334L27.333 28.584C27.333 29.2283 27.8553 29.7507 28.4997 29.7507C29.144 29.7507 29.6663 29.2283 29.6663 28.584L29.6663 23.334C29.6663 22.6897 29.144 22.1673 28.4997 22.1673Z" fill="#D6293A"/>
<path d="M27.0368 32.3757C27.0368 31.5702 27.6897 30.9173 28.4951 30.9173C29.3005 30.9173 29.9535 31.5702 29.9535 32.3757C29.9535 33.1811 29.3005 33.834 28.4951 33.834C27.6897 33.834 27.0368 33.1811 27.0368 32.3757Z" fill="#D6293A"/>
<path fill-rule="evenodd" clip-rule="evenodd" d="M40.1663 28.0007C40.1663 34.444 34.943 39.6673 28.4997 39.6673C22.0564 39.6673 16.833 34.444 16.833 28.0007C16.833 21.5573 22.0564 16.334 28.4997 16.334C34.943 16.334 40.1663 21.5573 40.1663 28.0007ZM37.833 28.0007C37.833 33.1553 33.6543 37.334 28.4997 37.334C23.345 37.334 19.1663 33.1553 19.1663 28.0007C19.1663 22.846 23.345 18.6673 28.4997 18.6673C33.6543 18.6673 37.833 22.846 37.833 28.0007Z" fill="#D6293A"/>
</svg>
