<svg width="57" height="56" viewBox="0 0 57 56" fill="none" xmlns="http://www.w3.org/2000/svg">
<rect x="0.5" width="56" height="56" rx="28" fill="#2D9F70"/>
<rect x="0.5" width="56" height="56" rx="28" fill="white" fill-opacity="0.9"/>
<path d="M33.9913 24.8424C34.4469 25.298 34.4469 26.0367 33.9913 26.4923L28.158 32.3256C27.7024 32.7812 26.9637 32.7812 26.5081 32.3256L23.0081 28.8256C22.5524 28.37 22.5524 27.6313 23.0081 27.1757C23.4637 26.7201 24.2024 26.7201 24.658 27.1757L27.333 29.8507L32.3414 24.8424C32.797 24.3867 33.5357 24.3867 33.9913 24.8424Z" fill="#2D9F70"/>
<path fill-rule="evenodd" clip-rule="evenodd" d="M40.1663 28.0007C40.1663 34.444 34.943 39.6673 28.4997 39.6673C22.0564 39.6673 16.833 34.444 16.833 28.0007C16.833 21.5573 22.0564 16.334 28.4997 16.334C34.943 16.334 40.1663 21.5573 40.1663 28.0007ZM37.833 28.0007C37.833 33.1553 33.6543 37.334 28.4997 37.334C23.345 37.334 19.1663 33.1553 19.1663 28.0007C19.1663 22.846 23.345 18.6673 28.4997 18.6673C33.6543 18.6673 37.833 22.846 37.833 28.0007Z" fill="#2D9F70"/>
</svg>
